<mxfile host="app.diagrams.net" agent="Mozilla/5.0 (Macintosh; Intel Mac OS X 10_15_7) AppleWebKit/537.36 (KHTML, like Gecko) Chrome/131.0.0.0 Safari/537.36" version="25.0.3">
  <diagram name="AWS-diagram-legend" id="VJLz4wBClmrWltTQ995f">
    <mxGraphModel dx="1323" dy="1175" grid="0" gridSize="10" guides="1" tooltips="1" connect="1" arrows="1" fold="1" page="0" pageScale="1" pageWidth="850" pageHeight="1100" math="0" shadow="0">
      <root>
        <mxCell id="0" />
        <mxCell id="1" parent="0" />
        <mxCell id="W-26GssoJwJN2xcLeIlH-1" value="&lt;font style=&quot;font-size: 17px;&quot;&gt;AWS Cloud&lt;/font&gt;" style="points=[[0,0],[0.25,0],[0.5,0],[0.75,0],[1,0],[1,0.25],[1,0.5],[1,0.75],[1,1],[0.75,1],[0.5,1],[0.25,1],[0,1],[0,0.75],[0,0.5],[0,0.25]];outlineConnect=0;gradientColor=none;html=1;whiteSpace=wrap;fontSize=12;fontStyle=0;container=1;pointerEvents=0;collapsible=0;recursiveResize=0;shape=mxgraph.aws4.group;grIcon=mxgraph.aws4.group_aws_cloud_alt;strokeColor=#000000;fillColor=#FFFFFF;verticalAlign=top;align=left;spacingLeft=30;fontColor=#232F3E;strokeWidth=2;" vertex="1" parent="1">
          <mxGeometry x="-556" y="-215" width="368" height="470" as="geometry" />
        </mxCell>
        <mxCell id="W-26GssoJwJN2xcLeIlH-2" value="&lt;font style=&quot;font-size: 17px;&quot; color=&quot;#000000&quot;&gt;Region&lt;/font&gt;" style="points=[[0,0],[0.25,0],[0.5,0],[0.75,0],[1,0],[1,0.25],[1,0.5],[1,0.75],[1,1],[0.75,1],[0.5,1],[0.25,1],[0,1],[0,0.75],[0,0.5],[0,0.25]];outlineConnect=0;gradientColor=none;html=1;whiteSpace=wrap;fontSize=12;fontStyle=0;container=1;pointerEvents=0;collapsible=0;recursiveResize=0;shape=mxgraph.aws4.group;grIcon=mxgraph.aws4.group_region;strokeColor=#00A4A6;fillColor=none;verticalAlign=top;align=left;spacingLeft=30;fontColor=#147EBA;dashed=1;strokeWidth=2;" vertex="1" parent="W-26GssoJwJN2xcLeIlH-1">
          <mxGeometry x="23" y="43" width="317" height="399" as="geometry" />
        </mxCell>
        <mxCell id="W-26GssoJwJN2xcLeIlH-3" value="&lt;font style=&quot;font-size: 16px;&quot; color=&quot;#000000&quot;&gt;VPC&lt;/font&gt;" style="points=[[0,0],[0.25,0],[0.5,0],[0.75,0],[1,0],[1,0.25],[1,0.5],[1,0.75],[1,1],[0.75,1],[0.5,1],[0.25,1],[0,1],[0,0.75],[0,0.5],[0,0.25]];outlineConnect=0;gradientColor=none;html=1;whiteSpace=wrap;fontSize=12;fontStyle=0;container=1;pointerEvents=0;collapsible=0;recursiveResize=0;shape=mxgraph.aws4.group;grIcon=mxgraph.aws4.group_vpc2;strokeColor=#8C4FFF;fillColor=none;verticalAlign=top;align=left;spacingLeft=30;fontColor=#AAB7B8;dashed=0;strokeWidth=2;" vertex="1" parent="W-26GssoJwJN2xcLeIlH-2">
          <mxGeometry x="25" y="44" width="264" height="330" as="geometry" />
        </mxCell>
        <mxCell id="W-26GssoJwJN2xcLeIlH-4" value="&lt;font color=&quot;#000000&quot; style=&quot;font-size: 17px;&quot;&gt;Availability Zone&lt;/font&gt;" style="fillColor=none;strokeColor=#147EBA;dashed=1;verticalAlign=top;fontStyle=0;fontColor=#147EBA;whiteSpace=wrap;html=1;strokeWidth=2;" vertex="1" parent="W-26GssoJwJN2xcLeIlH-3">
          <mxGeometry x="27" y="43" width="208" height="261" as="geometry" />
        </mxCell>
        <mxCell id="W-26GssoJwJN2xcLeIlH-8" value="&lt;font style=&quot;font-size: 17px;&quot;&gt;Public subnet&lt;/font&gt;" style="points=[[0,0],[0.25,0],[0.5,0],[0.75,0],[1,0],[1,0.25],[1,0.5],[1,0.75],[1,1],[0.75,1],[0.5,1],[0.25,1],[0,1],[0,0.75],[0,0.5],[0,0.25]];outlineConnect=0;html=1;whiteSpace=wrap;fontSize=12;fontStyle=0;container=1;pointerEvents=0;collapsible=0;container=1;recursiveResize=0;shape=mxgraph.aws4.group;grIcon=mxgraph.aws4.group_security_group;grStroke=1;strokeColor=#82b366;fillColor=none;verticalAlign=top;align=left;spacingLeft=30;strokeWidth=2;fillStyle=auto;movable=1;resizable=1;rotatable=1;deletable=1;editable=1;locked=0;connectable=1;" vertex="1" parent="W-26GssoJwJN2xcLeIlH-3">
          <mxGeometry x="51.5" y="83" width="159" height="200" as="geometry" />
        </mxCell>
        <mxCell id="W-26GssoJwJN2xcLeIlH-5" value="" style="group" vertex="1" connectable="0" parent="W-26GssoJwJN2xcLeIlH-3">
          <mxGeometry x="72.5" y="130.5" width="119" height="105" as="geometry" />
        </mxCell>
        <mxCell id="W-26GssoJwJN2xcLeIlH-6" value="&lt;font style=&quot;font-size: 17px;&quot;&gt;Amazon EC2 instance&lt;/font&gt;" style="text;strokeColor=none;fillColor=none;html=1;align=center;verticalAlign=middle;whiteSpace=wrap;rounded=0;fontSize=16;" vertex="1" parent="W-26GssoJwJN2xcLeIlH-5">
          <mxGeometry y="75" width="119" height="30" as="geometry" />
        </mxCell>
        <mxCell id="W-26GssoJwJN2xcLeIlH-7" value="" style="sketch=0;outlineConnect=0;fontColor=#232F3E;gradientColor=none;fillColor=#ED7100;strokeColor=none;dashed=0;verticalLabelPosition=bottom;verticalAlign=top;align=center;html=1;fontSize=12;fontStyle=0;aspect=fixed;pointerEvents=1;shape=mxgraph.aws4.instance2;rotation=0;" vertex="1" parent="W-26GssoJwJN2xcLeIlH-5">
          <mxGeometry x="25.5" width="68" height="68" as="geometry" />
        </mxCell>
        <mxCell id="W-26GssoJwJN2xcLeIlH-9" value="&lt;font style=&quot;font-size: 17px;&quot;&gt;&lt;b&gt;AWS - Single Server example&lt;/b&gt;&lt;/font&gt;" style="text;strokeColor=none;align=center;fillColor=none;html=1;verticalAlign=middle;whiteSpace=wrap;rounded=0;" vertex="1" parent="1">
          <mxGeometry x="-558" y="-264" width="261" height="30" as="geometry" />
        </mxCell>
      </root>
    </mxGraphModel>
  </diagram>
</mxfile>
